<svg width="128" height="128" viewBox="0 0 128 128" fill="none" xmlns="http://www.w3.org/2000/svg">
<g clip-path="url(#clip0_1123_62)">
<rect width="128" height="128" rx="28" fill="#0088F4"/>
<path d="M63.28 110.024C53.9787 110.024 45.9573 108.061 39.216 104.136C32.56 100.211 27.44 94.792 23.856 87.88C20.3573 80.8827 18.608 72.8613 18.608 63.816C18.608 54.6 20.4 46.4933 23.984 39.496C27.6533 32.4987 32.8587 27.08 39.6 23.24C46.3413 19.3147 54.3627 17.352 63.664 17.352C72.88 17.352 80.816 19.272 87.472 23.112C94.128 26.952 99.248 32.328 102.832 39.24C106.501 46.152 108.336 54.216 108.336 63.432C108.336 72.4773 106.501 80.5413 102.832 87.624C99.248 94.6213 94.0853 100.125 87.344 104.136C80.688 108.061 72.6667 110.024 63.28 110.024ZM63.536 92.872C69.68 92.872 74.672 91.464 78.512 88.648C82.352 85.832 85.1253 82.2053 86.832 77.768C88.624 73.3307 89.52 68.68 89.52 63.816C89.52 60.232 89.008 56.6907 87.984 53.192C87.0453 49.6933 85.552 46.536 83.504 43.72C81.456 40.904 78.768 38.6853 75.44 37.064C72.112 35.3573 68.1013 34.504 63.408 34.504C57.3493 34.504 52.4 35.912 48.56 38.728C44.72 41.4587 41.8613 45.0427 39.984 49.48C38.192 53.9173 37.296 58.6533 37.296 63.688C37.296 68.7227 38.192 73.4587 39.984 77.896C41.8613 82.3333 44.72 85.96 48.56 88.776C52.4853 91.5067 57.4773 92.872 63.536 92.872Z" fill="white"/>
</g>
<defs>
<clipPath id="clip0_1123_62">
<rect width="128" height="128" rx="28" fill="white"/>
</clipPath>
</defs>
</svg>
